<?xml version="1.0" encoding="utf-8"?><svg viewBox="0 0 30 30" xmlns="http://www.w3.org/2000/svg" xmlns:xlink="http://www.w3.org/1999/xlink"><style>:root>svg{display:none}:root>svg:target{display:block}</style><svg viewBox="0 0 100 100" id="email" xmlns="http://www.w3.org/2000/svg"><path fill-rule="evenodd" clip-rule="evenodd" d="M50 100c27.614 0 50-22.386 50-50S77.614 0 50 0 0 22.386 0 50s22.386 50 50 50zM26.227 34.181c.304-.974.963-1.693 1.857-2.025l.415-.154L49.979 32c21.34-.001 21.481 0 21.88.134.964.325 1.681 1.148 1.98 2.272l.094.356-1.771 1.27a8413.058 8413.058 0 00-8.853 6.363c-.925.666-2.278 1.64-3.007 2.162-2.103 1.508-4.29 3.079-5.89 4.231-3.65 2.627-4.358 3.13-4.412 3.13-.054 0-.817-.542-4.504-3.197a3137.698 3137.698 0 00-5.8-4.164c-.729-.522-2.165-1.556-3.192-2.296-1.026-.74-2.442-1.76-3.146-2.264-.705-.505-2.35-1.688-3.656-2.628s-2.646-1.9-2.977-2.133c-.667-.471-.675-.488-.498-1.055zm-.15 27.183c-.062.04-.077-2.244-.077-11.327 0-6.257.012-11.377.027-11.377s1.063.746 2.33 1.658c2.26 1.628 3.453 2.486 6.712 4.827l5.676 4.079c.73.524 1.327.987 1.327 1.029 0 .072-.81.646-3.949 2.8-.746.513-2.093 1.44-2.992 2.062-.9.622-3.106 2.143-4.905 3.381a1017.558 1017.558 0 00-4.149 2.868zM69.311 42a494.72 494.72 0 002.869-2.073c.95-.69 1.748-1.259 1.774-1.261.025-.003.046 5.114.046 11.37 0 9.084-.015 11.367-.077 11.328A334.436 334.436 0 0071.5 59.69a237.095 237.095 0 01-1.85-1.28c-.17-.121-.74-.515-1.265-.876-.526-.36-1.318-.904-1.759-1.208-.44-.305-2.134-1.471-3.763-2.593-4.735-3.261-4.936-3.403-4.936-3.479 0-.076.22-.239 4.041-2.98a5008.01 5008.01 0 004.288-3.082c1.052-.757 2.426-1.744 3.054-2.192zM37.815 57.137a651.82 651.82 0 004.812-3.331c1.222-.85 2.263-1.535 2.314-1.524.05.01 1.05.709 2.221 1.552 1.17.843 2.236 1.574 2.368 1.625.304.117.636.117.941 0 .132-.051 1.196-.781 2.366-1.623 1.17-.842 2.157-1.544 2.195-1.56.06-.025 1.511.958 5.827 3.948 1.143.792 2.72 1.88 5.953 4.105.95.654 2.922 2.014 4.38 3.022l2.654 1.833-.005.26c-.007.372-.348 1.078-.747 1.548-.386.455-1.005.83-1.555.94-.217.045-7.681.068-21.539.068s-21.322-.023-21.54-.067c-.549-.111-1.168-.486-1.554-.941-.374-.44-.713-1.118-.762-1.524l-.032-.26 1.656-1.14c.911-.628 2.211-1.524 2.89-1.994a2234.81 2234.81 0 017.157-4.937z"/></svg><svg viewBox="0 0 100 100" id="instagram" xmlns="http://www.w3.org/2000/svg"><path fill-rule="evenodd" clip-rule="evenodd" d="M50 100c27.614 0 50-22.386 50-50S77.614 0 50 0 0 22.386 0 50s22.386 50 50 50zM25 39.392C25 31.456 31.457 25 39.392 25h21.216C68.544 25 75 31.457 75 39.392v21.41c0 7.936-6.456 14.393-14.392 14.393H39.392C31.456 75.195 25 68.738 25 60.803V39.392zm11.988 10.613c0-7.12 5.856-12.913 13.052-12.913s13.05 5.793 13.05 12.913-5.854 12.913-13.05 12.913c-7.197 0-13.052-5.793-13.052-12.913zm4.754 0c0 4.498 3.722 8.159 8.298 8.159 4.575 0 8.297-3.66 8.297-8.159 0-4.498-3.723-8.158-8.297-8.158-4.576 0-8.298 3.66-8.298 8.158zm21.583-10.37a3.07 3.07 0 100-6.141 3.07 3.07 0 000 6.142z"/></svg><svg viewBox="0 0 100 100" id="vk" xmlns="http://www.w3.org/2000/svg"><path fill-rule="evenodd" clip-rule="evenodd" d="M50 100c27.614 0 50-22.386 50-50S77.614 0 50 0 0 22.386 0 50s22.386 50 50 50zM25 34c.406 19.488 10.15 31.2 27.233 31.2h.968V54.05c6.278.625 11.024 5.216 12.93 11.15H75c-2.436-8.87-8.838-13.773-12.836-15.647C66.162 47.242 71.783 41.62 73.126 34h-8.058c-1.749 6.184-6.932 11.805-11.867 12.336V34h-8.057v21.611C40.147 54.362 33.838 48.304 33.556 34H25z"/></svg></svg>